# xmcd
#
# Track frame offsets:
#	150
#	19597
#	55702
#	87595
#	121672
#
# Disc length: 1863 seconds
# Revision: 0
# Processed by: cddbd v1.5.2PL0 Copyright (c) Steve Scherf et al.
# Submitted via: dBpowerAMP V12.0
#
DISCID=32074505
DTITLE=Mariah Carey - Joy To The World
DYEAR=1995
DGENRE=Dance
TTITLE0=Joy To The World [LP Version]
TTITLE1=Joy To The World [Celebration Mix]
TTITLE2=Joy To The World [Flava Mix]
TTITLE3=Joy To The World [Club Mix]
TTITLE4=All I Want For Christmas Is You [Single Version]
EXTD=
EXTT0=
EXTT1=
EXTT2=
EXTT3=
EXTT4=
PLAYORDER=
